{
	"asset":{
		"generator":"Khronos glTF Blender I/O v3.6.27",
		"version":"2.0"
	},
	"scene":0,
	"scenes":[
		{
			"name":"Scene",
			"nodes":[
				0,
				1,
				2
			]
		}
	],
	"nodes":[
		{
			"mesh":0,
			"name":"Cargo",
			"scale":[
				1,
				0.563650369644165,
				1
			],
			"translation":[
				1.1040551662445068,
				-1.8125934600830078,
				-1.1691253185272217
			]
		},
		{
			"mesh":1,
			"name":"Engines",
			"rotation":[
				-0.7071068286895752,
				0.7071068286895752,
				0,
				0.0000000533850901
			],
			"scale":[
				0.5711067318916321,
				0.5711067318916321,
				0.5711067318916321
			],
			"translation":[
				-7.1551618576049805,
				0,
				-1.1410475969314575
			]
		},
		{
			"mesh":2,
			"name":"Ship",
			"rotation":[
				0,
				1,
				0,
				0.000000075497901
			],
			"translation":[
				-1.352292537689209,
				0,
				0
			]
		}
	],
	"meshes":[
		{
			"name":"Cargo",
			"primitives":[
				{
					"attributes":{
						"COLOR_0":0,
						"POSITION":1,
						"NORMAL":2,
						"TEXCOORD_0":3
					},
					"indices":4
				}
			]
		},
		{
			"name":"Engines",
			"primitives":[
				{
					"attributes":{
						"COLOR_0":5,
						"POSITION":6,
						"NORMAL":7,
						"TEXCOORD_0":8
					},
					"indices":9
				}
			]
		},
		{
			"name":"Ship",
			"primitives":[
				{
					"attributes":{
						"COLOR_0":10,
						"POSITION":11,
						"NORMAL":12,
						"TEXCOORD_0":13
					},
					"indices":14
				}
			]
		}
	],
	"accessors":[
		{
			"bufferView":0,
			"componentType":5123,
			"count":384,
			"normalized":true,
			"type":"VEC4"
		},
		{
			"bufferView":1,
			"componentType":5126,
			"count":384,
			"max":[
				8.200003623962402,
				7.399998188018799,
				3.3382515907287598
			],
			"min":[
				-1.0000005960464478,
				-1,
				-1
			],
			"type":"VEC3"
		},
		{
			"bufferView":2,
			"componentType":5126,
			"count":384,
			"type":"VEC3"
		},
		{
			"bufferView":3,
			"componentType":5126,
			"count":384,
			"type":"VEC2"
		},
		{
			"bufferView":4,
			"componentType":5123,
			"count":576,
			"type":"SCALAR"
		},
		{
			"bufferView":5,
			"componentType":5123,
			"count":384,
			"normalized":true,
			"type":"VEC4"
		},
		{
			"bufferView":6,
			"componentType":5126,
			"count":384,
			"max":[
				1,
				1,
				1
			],
			"min":[
				-1,
				-1,
				-4.995913982391357
			],
			"type":"VEC3"
		},
		{
			"bufferView":7,
			"componentType":5126,
			"count":384,
			"type":"VEC3"
		},
		{
			"bufferView":8,
			"componentType":5126,
			"count":384,
			"type":"VEC2"
		},
		{
			"bufferView":9,
			"componentType":5123,
			"count":744,
			"type":"SCALAR"
		},
		{
			"bufferView":10,
			"componentType":5123,
			"count":672,
			"normalized":true,
			"type":"VEC4"
		},
		{
			"bufferView":11,
			"componentType":5126,
			"count":672,
			"max":[
				7.15523624420166,
				1.4009711742401123,
				5.827255725860596
			],
			"min":[
				-11.769848823547363,
				-3.3550310134887695,
				-5.827255725860596
			],
			"type":"VEC3"
		},
		{
			"bufferView":12,
			"componentType":5126,
			"count":672,
			"type":"VEC3"
		},
		{
			"bufferView":13,
			"componentType":5126,
			"count":672,
			"type":"VEC2"
		},
		{
			"bufferView":14,
			"componentType":5123,
			"count":1356,
			"type":"SCALAR"
		}
	],
	"bufferViews":[
		{
			"buffer":0,
			"byteLength":3072,
			"byteOffset":0,
			"target":34962
		},
		{
			"buffer":0,
			"byteLength":4608,
			"byteOffset":3072,
			"target":34962
		},
		{
			"buffer":0,
			"byteLength":4608,
			"byteOffset":7680,
			"target":34962
		},
		{
			"buffer":0,
			"byteLength":3072,
			"byteOffset":12288,
			"target":34962
		},
		{
			"buffer":0,
			"byteLength":1152,
			"byteOffset":15360,
			"target":34963
		},
		{
			"buffer":0,
			"byteLength":3072,
			"byteOffset":16512,
			"target":34962
		},
		{
			"buffer":0,
			"byteLength":4608,
			"byteOffset":19584,
			"target":34962
		},
		{
			"buffer":0,
			"byteLength":4608,
			"byteOffset":24192,
			"target":34962
		},
		{
			"buffer":0,
			"byteLength":3072,
			"byteOffset":28800,
			"target":34962
		},
		{
			"buffer":0,
			"byteLength":1488,
			"byteOffset":31872,
			"target":34963
		},
		{
			"buffer":0,
			"byteLength":5376,
			"byteOffset":33360,
			"target":34962
		},
		{
			"buffer":0,
			"byteLength":8064,
			"byteOffset":38736,
			"target":34962
		},
		{
			"buffer":0,
			"byteLength":8064,
			"byteOffset":46800,
			"target":34962
		},
		{
			"buffer":0,
			"byteLength":5376,
			"byteOffset":54864,
			"target":34962
		},
		{
			"buffer":0,
			"byteLength":2712,
			"byteOffset":60240,
			"target":34963
		}
	],
	"buffers":[
		{
			"byteLength":62952,
			"uri":"ship.bin"
		}
	]
}
